# xmcd
#
# Track frame offsets: 
#        150
#        15918
#        26151
#        42414
#        57414
#        72498
#        93226
#        99473
#        124703
#        145008
#        164259
#        181204
#        190263
#        207849
#        217149
#        237389
#        255289
#        275165
#        285051
#        308968
#        314101
#        325406
#        339737
#
# Disc length: 4751 seconds
#
# Revision: 0
# Processed by: cddbd v1.5PL3 Copyright (c) Steve Scherf et al.
# Submitted via: ExactAudioCopy v0.95a5
#
DISCID=5a128d17
DTITLE=Mike Oldfield - Music History [CD2)
DYEAR=1900
DGENRE=Blues
TTITLE0=Moonlight Shadow (Maggie Reilly)
TTITLE1=Landfall
TTITLE2=Cochise
TTITLE3=Secrets
TTITLE4=Tubular World
TTITLE5=Return To The Origin
TTITLE6=In The Beginning
TTITLE7=The Millennium Bell
TTITLE8=Viper
TTITLE9=To Be Free
TTITLE10=Embers
TTITLE11=From The Ashes
TTITLE12=To Be Free (Radio Edit)
TTITLE13=The Shining Ones
TTITLE14=Tres Lunas
TTITLE15=Man In The Rain
TTITLE16=The Top Of The Morning
TTITLE17=Daydream
TTITLE18=Thou Art In Heaven
TTITLE19=A New Beginning
TTITLE20=No Mans Land (Reprise)
TTITLE21=Oceania
TTITLE22=Fire Fly
EXTD=
EXTT0=
EXTT1=
EXTT2=
EXTT3=
EXTT4=
EXTT5=
EXTT6=
EXTT7=
EXTT8=
EXTT9=
EXTT10=
EXTT11=
EXTT12=
EXTT13=
EXTT14=
EXTT15=
EXTT16=
EXTT17=
EXTT18=
EXTT19=
EXTT20=
EXTT21=
EXTT22=
PLAYORDER=
